<svg width="869" height="302" xmlns="http://www.w3.org/2000/svg" xmlns:xlink="http://www.w3.org/1999/xlink" overflow="hidden"><defs><clipPath id="clip0"><rect x="0" y="0" width="869" height="302"/></clipPath></defs><g clip-path="url(#clip0)"><rect x="0" y="0" width="869" height="301.783" fill="#FFFFFF"/><text font-family="Calibri,Calibri_MSFontService,sans-serif" font-weight="400" font-size="24" transform="matrix(1 0 0 0.999281 51.86 86)">NAS framework</text><rect x="230.5" y="39.4716" width="135" height="83.9396" stroke="#2F528F" stroke-width="1.33282" stroke-miterlimit="8" fill="#4472C4"/><text fill="#FFFFFF" font-family="Calibri,Calibri_MSFontService,sans-serif" font-weight="400" font-size="24" transform="matrix(1 0 0 0.999281 264.659 74)">Search <tspan font-size="24" x="3.98514" y="29.0209">Space</tspan></text><rect x="450.5" y="39.4716" width="135" height="83.9396" stroke="#2F528F" stroke-width="1.33282" stroke-miterlimit="8" fill="#4472C4"/><text fill="#FFFFFF" font-family="Calibri,Calibri_MSFontService,sans-serif" font-weight="400" font-size="24" transform="matrix(1 0 0 0.999281 484.828 74)">Search <tspan font-size="24" x="-7.35718" y="29.0209">Strategy</tspan></text><rect x="670.5" y="39.4716" width="135" height="83.9396" stroke="#2F528F" stroke-width="1.33282" stroke-miterlimit="8" fill="#4472C4"/><text fill="#FFFFFF" font-family="Calibri,Calibri_MSFontService,sans-serif" font-weight="400" font-size="24" transform="matrix(1 0 0 0.999281 685.897 74)">Estimation <tspan font-size="24" x="11.7355" y="29.0209">Strategy</tspan></text><path d="M230.5 184.534C230.5 177.267 236.395 171.377 243.667 171.377L352.333 171.377C359.605 171.377 365.5 177.267 365.5 184.534L365.5 237.162C365.5 244.429 359.605 250.32 352.333 250.32L243.667 250.32C236.395 250.32 230.5 244.429 230.5 237.162Z" stroke="#548235" stroke-width="1.33282" stroke-miterlimit="8" fill="#C5E0B4" fill-rule="evenodd"/><text font-family="Calibri,Calibri_MSFontService,sans-serif" font-weight="400" font-size="24" transform="matrix(1 0 0 0.999281 269.48 218)">space</text><path d="M450.5 184.534C450.5 177.267 456.395 171.377 463.667 171.377L572.333 171.377C579.605 171.377 585.5 177.267 585.5 184.534L585.5 237.162C585.5 244.429 579.605 250.32 572.333 250.32L463.667 250.32C456.395 250.32 450.5 244.429 450.5 237.162Z" stroke="#548235" stroke-width="1.33282" stroke-miterlimit="8" fill="#C5E0B4" fill-rule="evenodd"/><text font-family="Calibri,Calibri_MSFontService,sans-serif" font-weight="400" font-size="24" transform="matrix(1 0 0 0.999281 470.236 218)">algorithm</text><path d="M670.5 184.534C670.5 177.267 676.395 171.377 683.667 171.377L792.333 171.377C799.605 171.377 805.5 177.267 805.5 184.534L805.5 237.162C805.5 244.429 799.605 250.32 792.333 250.32L683.667 250.32C676.395 250.32 670.5 244.429 670.5 237.162Z" stroke="#548235" stroke-width="1.33282" stroke-miterlimit="8" fill="#C5E0B4" fill-rule="evenodd"/><text font-family="Calibri,Calibri_MSFontService,sans-serif" font-weight="400" font-size="24" transform="matrix(1 0 0 0.999281 690.762 218)">estimator<tspan font-size="24" x="-629.905" y="4.00288">AutoGL</tspan><tspan font-size="24" x="-552.168" y="4.00288">class </tspan></text><path d="M365 79.9428 443.053 79.9429 443.053 81.9407 365 81.9406ZM441.721 76.9462 449.717 80.9418 441.721 84.9374Z" fill="#4472C4"/><path d="M585.13 63.5056 589.68 59.6063 594.577 56.1709 599.731 53.3702 605.044 51.1167 610.572 49.3614 616.223 48.193 621.95 47.5659 627.707 47.5238 633.443 48.0199 639.131 49.0097 644.711 50.6254 650.231 52.7327 655.516 55.4195 660.57 58.5981 664.86 62.0706 663.602 63.623 659.358 60.188 659.455 60.2571 654.49 57.1345 654.569 57.1795 649.372 54.5372 649.468 54.58 644.036 52.5065 644.115 52.5328 638.627 50.9438 638.734 50.9685 633.143 49.9955 633.228 50.0066 627.581 49.5182 627.675 49.5218 622.015 49.5632 622.117 49.5573 616.488 50.1737 616.582 50.1589 611.028 51.3073 611.128 51.2811 605.694 53.0065 605.782 52.974 600.556 55.1903 600.643 55.1484 595.582 57.8988 595.679 57.8388 590.868 61.2136 590.945 61.1543 586.431 65.0221ZM665.928 58.9914 669.17 67.3177 660.559 64.9138Z" fill="#4472C4"/><path d="M670.004 97.9113 665.445 101.8 660.54 105.224 655.38 108.013 650.062 110.255 644.529 111.997 638.876 113.153 633.147 113.767 627.39 113.796 621.655 113.286 615.97 112.284 610.393 110.655 604.878 108.535 599.599 105.836 594.552 102.646 590.27 99.1639 591.532 97.6144 595.768 101.059 595.672 100.99 600.629 104.124 600.55 104.079 605.741 106.733 605.645 106.69 611.072 108.776 610.994 108.749 616.478 110.351 616.371 110.326 621.96 111.312 621.875 111.3 627.52 111.802 627.427 111.798 633.086 111.769 632.985 111.775 638.615 111.171 638.522 111.186 644.078 110.05 643.977 110.076 649.416 108.363 649.328 108.396 654.558 106.191 654.471 106.233 659.539 103.494 659.442 103.554 664.26 100.19 664.184 100.249 668.706 96.3918ZM589.196 102.241 585.973 93.9069 594.578 96.3306Z" fill="#4472C4"/><path d="M2.99669-6.55446e-06 2.99676 32.9635-2.99662 32.9635-2.99669 6.55446e-06ZM8.99014 29.9668 0.000104871 47.947-8.99001 29.9668Z" fill="#A9D18E" transform="matrix(-1.00072 0 0 1 297 122.911)"/><path d="M2.99669-6.55446e-06 2.99676 32.9635-2.99662 32.9635-2.99669 6.55446e-06ZM8.99014 29.9668 0.000104871 47.947-8.99001 29.9668Z" fill="#A9D18E" transform="matrix(-1.00072 0 0 1 517 122.911)"/><path d="M2.99669-6.55446e-06 2.99676 32.9635-2.99662 32.9635-2.99669 6.55446e-06ZM8.99014 29.9668 0.000104871 47.947-8.99001 29.9668Z" fill="#A9D18E" transform="matrix(-1.00072 0 0 1 738 122.911)"/></g></svg>