<svg width="1234" height="437" xmlns="http://www.w3.org/2000/svg" xmlns:xlink="http://www.w3.org/1999/xlink" overflow="hidden"><defs><clipPath id="clip0"><rect x="24" y="142" width="1234" height="437"/></clipPath><linearGradient x1="287" y1="294" x2="287" y2="427" gradientUnits="userSpaceOnUse" spreadMethod="reflect" id="fill1"><stop offset="0" stop-color="#F7BDA4"/><stop offset="0.5" stop-color="#F5B195"/><stop offset="1" stop-color="#F8A581"/></linearGradient><linearGradient x1="542.5" y1="302" x2="542.5" y2="418" gradientUnits="userSpaceOnUse" spreadMethod="reflect" id="fill2"><stop offset="0" stop-color="#B1CBE9"/><stop offset="0.5" stop-color="#A3C1E5"/><stop offset="1" stop-color="#92B9E4"/></linearGradient><linearGradient x1="846" y1="396" x2="846" y2="512" gradientUnits="userSpaceOnUse" spreadMethod="reflect" id="fill3"><stop offset="0" stop-color="#B5D5A7"/><stop offset="0.5" stop-color="#AACE99"/><stop offset="1" stop-color="#9CCA86"/></linearGradient><linearGradient x1="846" y1="244" x2="846" y2="360" gradientUnits="userSpaceOnUse" spreadMethod="reflect" id="fill4"><stop offset="0" stop-color="#FFDD9C"/><stop offset="0.5" stop-color="#FFD78E"/><stop offset="1" stop-color="#FFD479"/></linearGradient><clipPath id="clip5"><rect x="473" y="172" width="62" height="62"/></clipPath><clipPath id="clip6"><rect x="473" y="172" width="62" height="62"/></clipPath><clipPath id="clip7"><rect x="473" y="172" width="62" height="62"/></clipPath></defs><g clip-path="url(#clip0)" transform="translate(-24 -142)"><path d="M219 316.167C219 303.924 249.445 294 287 294 324.555 294 355 303.924 355 316.167L355 404.833C355 417.076 324.555 427 287 427 249.445 427 219 417.076 219 404.833Z" fill="url(#fill1)" fill-rule="evenodd"/><path d="M355 316.167C355 328.409 324.555 338.333 287 338.333 249.445 338.333 219 328.409 219 316.167" stroke="#ED7D31" stroke-width="4" stroke-miterlimit="8" fill="none" fill-rule="evenodd"/><path d="M219 316.167C219 303.924 249.445 294 287 294 324.555 294 355 303.924 355 316.167L355 404.833C355 417.076 324.555 427 287 427 249.445 427 219 417.076 219 404.833Z" stroke="#ED7D31" stroke-width="4" stroke-miterlimit="8" fill="none" fill-rule="evenodd"/><text font-family="Times New Roman,Times New Roman_MSFontService,sans-serif" font-weight="700" font-size="24" transform="translate(244.287 366)">AutoGL<tspan x="4" y="29">Dataset</tspan></text><path d="M0 0 41.2168 42.6463" stroke="#000000" stroke-width="0.666667" stroke-miterlimit="8" fill="none" fill-rule="evenodd" transform="matrix(1 0 0 -1 79.5001 354.146)"/><path d="M0 0 34.2481 20.7045" stroke="#000000" stroke-width="0.666667" stroke-miterlimit="8" fill="none" fill-rule="evenodd" transform="matrix(1 0 0 -1 32.5001 330.205)"/><path d="M79.5001 354.5 123.635 372.19" stroke="#000000" stroke-width="0.666667" stroke-miterlimit="8" fill="none" fill-rule="evenodd"/><path d="M124.095 372.245 120.5 310.5" stroke="#000000" stroke-width="0.666667" stroke-miterlimit="8" fill="none" fill-rule="evenodd"/><path d="M136.411 324.163 120.5 310.5" stroke="#000000" stroke-width="0.666667" stroke-miterlimit="8" fill="none" fill-rule="evenodd"/><path d="M0 0 7.1474 53.6058" stroke="#000000" stroke-width="0.666667" stroke-miterlimit="8" fill="none" fill-rule="evenodd" transform="matrix(1 0 0 -1 71.5001 409.106)"/><path d="M33.5001 330.5 77.6353 354.087" stroke="#000000" stroke-width="0.666667" stroke-miterlimit="8" fill="none" fill-rule="evenodd"/><path d="M0 0 45.3032 28.0543" stroke="#000000" stroke-width="0.666667" stroke-miterlimit="8" fill="none" fill-rule="evenodd" transform="matrix(1 0 0 -1 30.5001 384.554)"/><path d="M69.8109 409.98 30.5001 385.5" stroke="#000000" stroke-width="0.666667" stroke-miterlimit="8" fill="none" fill-rule="evenodd"/><path d="M56.5001 310C56.5001 304.753 60.7533 300.5 66.0001 300.5 71.2468 300.5 75.5001 304.753 75.5001 310 75.5001 315.247 71.2468 319.5 66.0001 319.5 60.7533 319.5 56.5001 315.247 56.5001 310Z" stroke="#2F528F" stroke-width="1.33333" stroke-miterlimit="8" fill="#4472C4" fill-rule="evenodd"/><path d="M24.942 329.643C25.269 325.44 28.9413 322.298 33.1443 322.625 37.3473 322.952 40.4893 326.625 40.1623 330.828 39.8352 335.031 36.1629 338.173 31.9599 337.846 27.757 337.518 24.6149 333.846 24.942 329.643Z" stroke="#507E32" stroke-width="1.33333" stroke-miterlimit="8" fill="#70AD47" fill-rule="evenodd"/><path d="M116.5 310.5C116.5 308.291 118.067 306.5 120 306.5 121.933 306.5 123.5 308.291 123.5 310.5 123.5 312.709 121.933 314.5 120 314.5 118.067 314.5 116.5 312.709 116.5 310.5Z" stroke="#AE5A21" stroke-width="1.33333" stroke-miterlimit="8" fill="#ED7D31" fill-rule="evenodd"/><path d="M77.2168 344.698C82.4999 344.455 86.9799 348.541 87.2231 353.824 87.4662 359.107 83.3805 363.587 78.0974 363.83 72.8142 364.073 68.3342 359.988 68.0911 354.705 67.8479 349.421 71.9336 344.941 77.2168 344.698Z" stroke="#787878" stroke-width="1.33333" stroke-miterlimit="8" fill="#A5A5A5" fill-rule="evenodd"/><path d="M66.7274 401.383C70.6634 399.873 75.0783 401.84 76.5883 405.776 78.0984 409.712 76.1318 414.127 72.1958 415.637 68.2598 417.147 63.845 415.18 62.3349 411.244 60.8249 407.308 62.7915 402.893 66.7274 401.383Z" stroke="#BF9000" stroke-width="1.33333" stroke-miterlimit="8" fill="#FFC000" fill-rule="evenodd"/><path d="M28.3526 380.451C30.249 379.724 32.3761 380.671 33.1037 382.568 33.8312 384.464 32.8837 386.591 30.9873 387.319 29.0909 388.046 26.9638 387.099 26.2363 385.202 25.5087 383.306 26.4562 381.179 28.3526 380.451Z" stroke="#41719C" stroke-width="1.33333" stroke-miterlimit="8" fill="#5B9BD5" fill-rule="evenodd"/><path d="M117.096 369.074C118.915 365.81 123.036 364.64 126.3 366.459 129.563 368.279 130.734 372.4 128.914 375.663 127.094 378.927 122.974 380.097 119.71 378.278 116.447 376.458 115.276 372.337 117.096 369.074Z" stroke="#7030A0" stroke-width="1.33333" stroke-miterlimit="8" fill="#7030A0" fill-rule="evenodd"/><path d="M138.692 322.606C141.283 322.487 143.48 324.491 143.6 327.081 143.719 329.672 141.715 331.869 139.124 331.988 136.533 332.108 134.337 330.104 134.217 327.513 134.098 324.922 136.102 322.725 138.692 322.606Z" stroke="#C55A11" stroke-width="1.33333" stroke-miterlimit="8" fill="#FF0000" fill-rule="evenodd"/><text font-family="Times New Roman,Times New Roman_MSFontService,sans-serif" font-weight="700" font-size="24" transform="translate(50.3545 454)">Data</text><path d="M395.5 381 395.5 370.75 375 370.75 375 350.25 395.5 350.25 395.5 340 416 360.5Z" stroke="#000000" stroke-width="4" stroke-miterlimit="8" fill="none" fill-rule="evenodd"/><path d="M182 380 182 370 160 370 160 350 182 350 182 340 202 360Z" stroke="#000000" stroke-width="4" stroke-miterlimit="8" fill="none" fill-rule="evenodd"/><path d="M454 321.334C454 310.656 462.656 302 473.334 302L611.666 302C622.344 302 631 310.656 631 321.334L631 398.666C631 409.344 622.344 418 611.666 418L473.334 418C462.656 418 454 409.344 454 398.666Z" stroke="#5B9BD5" stroke-width="4" stroke-miterlimit="8" fill="url(#fill2)" fill-rule="evenodd"/><text font-family="Times New Roman,Times New Roman_MSFontService,sans-serif" font-weight="700" font-size="24" transform="translate(474.279 354)">Auto Feature<tspan x="5.45334" y="29">Engineering</tspan></text><path d="M758 415.334C758 404.656 766.656 396 777.334 396L914.666 396C925.344 396 934 404.656 934 415.334L934 492.666C934 503.344 925.344 512 914.666 512L777.334 512C766.656 512 758 503.344 758 492.666Z" stroke="#70AD47" stroke-width="4" stroke-miterlimit="8" fill="url(#fill3)" fill-rule="evenodd"/><text font-family="Times New Roman,Times New Roman_MSFontService,sans-serif" font-weight="700" font-size="24" transform="translate(813.541 448)">Model <tspan x="-11.78" y="29">Training</tspan></text><path d="M700 363.438C700 384.613 713.265 403.107 732.25 408.4L732.25 403.025 743 415.25 732.25 424.525 732.25 419.15C713.265 413.857 700 395.363 700 374.188Z" fill="#FFFFFF" fill-rule="evenodd"/><path d="M743 327.75C721.177 327.75 702.815 345.404 700.289 368.813 697.54 343.338 714.434 320.281 738.023 317.312 739.675 317.104 741.337 317 743 317Z" fill="#CDCDCD" fill-rule="evenodd"/><path d="M700 363.438C700 384.613 713.265 403.107 732.25 408.4L732.25 403.025 743 415.25 732.25 424.525 732.25 419.15C713.265 413.857 700 395.363 700 374.188L700 363.438C700 337.791 719.252 317 743 317L743 327.75C721.177 327.75 702.815 345.404 700.289 368.813" stroke="#000000" stroke-width="4" stroke-miterlimit="8" fill="none" fill-rule="evenodd"/><path d="M758 263.334C758 252.656 766.656 244 777.334 244L914.666 244C925.344 244 934 252.656 934 263.334L934 340.666C934 351.344 925.344 360 914.666 360L777.334 360C766.656 360 758 351.344 758 340.666Z" stroke="#FFC000" stroke-width="4" stroke-miterlimit="8" fill="url(#fill4)" fill-rule="evenodd"/><text font-family="Times New Roman,Times New Roman_MSFontService,sans-serif" font-weight="700" font-size="24" transform="translate(813.751 282)">Hyper <tspan x="-22.2133" y="29">Parameter</tspan><tspan x="-35.5467" y="58">Optimization</tspan></text><path d="M993 380.25C993 359.388 979.427 341.168 960 335.953L960 341.453 949 329 960 319.453 960 324.953C979.427 330.168 993 348.388 993 369.25Z" fill="#FFFFFF" fill-rule="evenodd"/><path d="M949 415C971.255 415 990.005 397.722 992.681 374.75 995.602 399.834 978.414 422.631 954.29 425.668 952.534 425.889 950.768 426 949 426Z" fill="#CDCDCD" fill-rule="evenodd"/><path d="M993 380.25C993 359.388 979.427 341.168 960 335.953L960 341.453 949 329 960 319.453 960 324.953C979.427 330.168 993 348.388 993 369.25L993 380.25C993 405.517 973.301 426 949 426L949 415C971.255 415 990.005 397.722 992.681 374.75" stroke="#000000" stroke-width="4" stroke-miterlimit="8" fill="none" fill-rule="evenodd"/><path d="M1067 322.334C1067 311.656 1075.66 303 1086.33 303L1223.67 303C1234.34 303 1243 311.656 1243 322.334L1243 399.666C1243 410.344 1234.34 419 1223.67 419L1086.33 419C1075.66 419 1067 410.344 1067 399.666Z" stroke="#C00000" stroke-width="4" stroke-miterlimit="8" fill="#FF9999" fill-rule="evenodd"/><text font-family="Times New Roman,Times New Roman_MSFontService,sans-serif" font-weight="700" font-size="24" transform="translate(1129.68 356)">Auto<tspan x="-24.6666" y="29">Ensemble</tspan></text><path d="M436 216.001C436 176.236 468.236 144 508.001 144L1183 144C1222.76 144 1255 176.236 1255 216.001L1255 503.999C1255 543.764 1222.76 576 1183 576L508.001 576C468.236 576 436 543.764 436 503.999Z" stroke="#000000" stroke-width="4" stroke-miterlimit="8" stroke-dasharray="32 12" fill="none" fill-rule="evenodd"/><text font-family="Times New Roman,Times New Roman_MSFontService,sans-serif" font-weight="700" font-size="24" transform="translate(1003.38 202)">AutoGL<tspan x="90.0067" y="0">Solver</tspan></text><g clip-path="url(#clip5)"><g clip-path="url(#clip6)"><g clip-path="url(#clip7)"><path d="M505.292 193.313C505.292 194.026 504.713 194.604 504 194.604 503.287 194.604 502.708 194.026 502.708 193.313 502.708 192.599 503.287 192.021 504 192.021 504.713 192.021 505.292 192.599 505.292 193.313Z"/><path d="M505.292 219.146C505.292 219.859 504.713 220.438 504 220.438 503.287 220.438 502.708 219.859 502.708 219.146 502.708 218.432 503.287 217.854 504 217.854 504.713 217.854 505.292 218.432 505.292 219.146Z"/><path d="M518.208 205.583C518.208 206.297 517.63 206.875 516.917 206.875 516.203 206.875 515.625 206.297 515.625 205.583 515.625 204.87 516.203 204.292 516.917 204.292 517.63 204.292 518.208 204.87 518.208 205.583Z"/><path d="M492.375 205.583C492.375 206.297 491.797 206.875 491.083 206.875 490.37 206.875 489.792 206.297 489.792 205.583 489.792 204.87 490.37 204.292 491.083 204.292 491.797 204.292 492.375 204.87 492.375 205.583Z"/><path d="M505.292 196.542 502.708 196.542 502.708 205.583C502.708 205.906 502.837 206.229 503.096 206.488L509.49 212.881 511.298 211.073 505.292 205.067 505.292 196.542Z"/><path d="M504 224.313C493.99 224.313 485.917 216.24 485.917 206.229 485.917 196.219 493.99 188.146 504 188.146 514.01 188.146 522.083 196.219 522.083 206.229 522.083 216.24 514.01 224.313 504 224.313L504 224.313ZM519.306 190.471 521.244 188.533C521.954 187.758 521.954 186.596 521.179 185.821 520.469 185.11 519.242 185.046 518.467 185.756L516.271 188.017C513.171 185.95 509.619 184.658 505.938 184.4L505.938 181.688 511.75 181.688 511.75 177.813 496.25 177.813 496.25 181.688 502.063 181.688 502.063 184.335C491.794 185.24 483.527 193.183 482.235 203.452 480.944 213.721 486.95 223.473 496.702 226.896 506.454 230.319 517.24 226.573 522.729 217.79 528.219 209.006 526.669 197.64 519.306 190.471L519.306 190.471Z"/></g></g></g><path d="M668.5 382 668.5 371.75 647 371.75 647 351.25 668.5 351.25 668.5 341 689 361.5Z" stroke="#000000" stroke-width="4" stroke-miterlimit="8" fill="none" fill-rule="evenodd"/><path d="M1032 380 1032 370 1010 370 1010 350 1032 350 1032 340 1052 360Z" stroke="#000000" stroke-width="4" stroke-miterlimit="8" fill="none" fill-rule="evenodd"/></g></svg>