<svg width="1297" height="325" xmlns="http://www.w3.org/2000/svg" xmlns:xlink="http://www.w3.org/1999/xlink" overflow="hidden"><defs><clipPath id="clip0"><rect x="192" y="336" width="1297" height="325"/></clipPath><clipPath id="clip1"><rect x="550" y="351" width="54" height="55"/></clipPath><clipPath id="clip2"><rect x="550" y="351" width="54" height="55"/></clipPath><clipPath id="clip3"><rect x="550" y="351" width="54" height="55"/></clipPath></defs><g clip-path="url(#clip0)" transform="translate(-192 -336)"><path d="M331 457.5C331 446.73 357.415 438 390 438 422.585 438 449 446.73 449 457.5L449 535.5C449 546.27 422.585 555 390 555 357.415 555 331 546.27 331 535.5Z" fill="#FBE5D6" fill-rule="evenodd"/><path d="M449 457.5C449 468.27 422.585 477 390 477 357.415 477 331 468.27 331 457.5" stroke="#ED7D31" stroke-width="2" stroke-miterlimit="8" fill="none" fill-rule="evenodd"/><path d="M331 457.5C331 446.73 357.415 438 390 438 422.585 438 449 446.73 449 457.5L449 535.5C449 546.27 422.585 555 390 555 357.415 555 331 546.27 331 535.5Z" stroke="#ED7D31" stroke-width="2" stroke-miterlimit="8" fill="none" fill-rule="evenodd"/><text font-family="Times New Roman,Times New Roman_MSFontService,sans-serif" font-weight="700" font-size="21" transform="translate(352.189 502)">AutoGL<tspan font-size="21" x="3.5" y="25">Dataset</tspan></text><path d="M0 0 21.4428 22.1865" stroke="#000000" stroke-width="0.666667" stroke-miterlimit="8" fill="none" fill-rule="evenodd" transform="matrix(1 0 0 -1 229.5 502.687)"/><path d="M0 0 17.8173 10.7713" stroke="#000000" stroke-width="0.666667" stroke-miterlimit="8" fill="none" fill-rule="evenodd" transform="matrix(1 0 0 -1 205.5 491.271)"/><path d="M230.5 503.5 253.461 512.703" stroke="#000000" stroke-width="0.666667" stroke-miterlimit="8" fill="none" fill-rule="evenodd"/><path d="M253.37 512.622 251.5 480.5" stroke="#000000" stroke-width="0.666667" stroke-miterlimit="8" fill="none" fill-rule="evenodd"/><path d="M258.778 487.608 250.5 480.5" stroke="#000000" stroke-width="0.666667" stroke-miterlimit="8" fill="none" fill-rule="evenodd"/><path d="M0 0 3.71843 27.888" stroke="#000000" stroke-width="0.666667" stroke-miterlimit="8" fill="none" fill-rule="evenodd" transform="matrix(1 0 0 -1 225.5 531.388)"/><path d="M205.5 490.5 228.461 502.771" stroke="#000000" stroke-width="0.666667" stroke-miterlimit="8" fill="none" fill-rule="evenodd"/><path d="M0 0 23.5687 14.5951" stroke="#000000" stroke-width="0.666667" stroke-miterlimit="8" fill="none" fill-rule="evenodd" transform="matrix(1 0 0 -1 204.5 519.095)"/><path d="M224.951 532.236 204.5 519.5" stroke="#000000" stroke-width="0.666667" stroke-miterlimit="8" fill="none" fill-rule="evenodd"/><path d="M217.5 480.5C217.5 477.739 219.739 475.5 222.5 475.5 225.261 475.5 227.5 477.739 227.5 480.5 227.5 483.261 225.261 485.5 222.5 485.5 219.739 485.5 217.5 483.261 217.5 480.5Z" stroke="#2F528F" stroke-width="1.33333" stroke-miterlimit="8" fill="#4472C4" fill-rule="evenodd"/><path d="M201.278 490.163C201.448 487.976 203.359 486.341 205.545 486.512 207.732 486.682 209.367 488.592 209.196 490.779 209.026 492.965 207.116 494.6 204.929 494.43 202.743 494.26 201.108 492.349 201.278 490.163Z" stroke="#507E32" stroke-width="1.33333" stroke-miterlimit="8" fill="#70AD47" fill-rule="evenodd"/><path d="M249.5 480.5C249.5 479.395 250.172 478.5 251 478.5 251.828 478.5 252.5 479.395 252.5 480.5 252.5 481.605 251.828 482.5 251 482.5 250.172 482.5 249.5 481.605 249.5 480.5Z" stroke="#AE5A21" stroke-width="1.33333" stroke-miterlimit="8" fill="#ED7D31" fill-rule="evenodd"/><path d="M228.474 497.995C231.222 497.868 233.553 499.994 233.68 502.743 233.806 505.491 231.68 507.822 228.932 507.948 226.183 508.075 223.853 505.949 223.726 503.201 223.6 500.452 225.725 498.121 228.474 497.995Z" stroke="#787878" stroke-width="1.33333" stroke-miterlimit="8" fill="#A5A5A5" fill-rule="evenodd"/><path d="M223.017 527.485C225.064 526.699 227.361 527.723 228.147 529.77 228.932 531.818 227.909 534.115 225.862 534.9 223.814 535.686 221.517 534.663 220.732 532.615 219.946 530.567 220.969 528.271 223.017 527.485Z" stroke="#BF9000" stroke-width="1.33333" stroke-miterlimit="8" fill="#FFC000" fill-rule="evenodd"/><path d="M203.053 516.595C204.039 516.217 205.146 516.71 205.524 517.696 205.903 518.683 205.41 519.789 204.423 520.168 203.437 520.546 202.33 520.054 201.952 519.067 201.573 518.08 202.066 516.974 203.053 516.595Z" stroke="#41719C" stroke-width="1.33333" stroke-miterlimit="8" fill="#5B9BD5" fill-rule="evenodd"/><path d="M249.221 510.676C250.167 508.978 252.311 508.369 254.009 509.316 255.707 510.263 256.316 512.406 255.369 514.104 254.422 515.802 252.279 516.411 250.581 515.464 248.883 514.518 248.274 512.374 249.221 510.676Z" stroke="#7030A0" stroke-width="1.33333" stroke-miterlimit="8" fill="#7030A0" fill-rule="evenodd"/><path d="M260.456 486.502C261.804 486.44 262.947 487.482 263.009 488.83 263.071 490.178 262.029 491.321 260.681 491.383 259.333 491.445 258.19 490.402 258.128 489.054 258.066 487.707 259.108 486.564 260.456 486.502Z" stroke="#C55A11" stroke-width="1.33333" stroke-miterlimit="8" fill="#FF0000" fill-rule="evenodd"/><path d="M723.5 510.5 723.5 503 707.5 503 707.5 488 723.5 488 723.5 480.5 738.5 495.5Z" stroke="#000000" stroke-miterlimit="8" fill="none" fill-rule="evenodd"/><path d="M306 513.5 306 506.25 290.5 506.25 290.5 491.75 306 491.75 306 484.5 320.5 499Z" stroke="#000000" stroke-miterlimit="8" fill="none" fill-rule="evenodd"/><path d="M524 463.167C524 454.238 531.238 447 540.167 447L680.833 447C689.762 447 697 454.238 697 463.167L697 527.833C697 536.762 689.762 544 680.833 544L540.167 544C531.238 544 524 536.762 524 527.833Z" stroke="#5B9BD5" stroke-width="2" stroke-miterlimit="8" fill="#DAE3F3" fill-rule="evenodd"/><text font-family="Times New Roman,Times New Roman_MSFontService,sans-serif" font-weight="700" font-size="21" transform="translate(549.75 491)">Auto Feature <tspan font-size="21" x="4.8067" y="25">Engineering</tspan></text><path d="M1030 527.167C1030 518.238 1037.24 511 1046.17 511L1186.83 511C1195.76 511 1203 518.238 1203 527.167L1203 591.833C1203 600.762 1195.76 608 1186.83 608L1046.17 608C1037.24 608 1030 600.762 1030 591.833Z" stroke="#70AD47" stroke-width="2" stroke-miterlimit="8" fill="#E2F0D9" fill-rule="evenodd"/><text font-family="Times New Roman,Times New Roman_MSFontService,sans-serif" font-weight="700" font-size="21" transform="translate(1045.66 568)">Model Training</text><path d="M987.5 495.688C987.5 510.821 997.063 524.038 1010.75 527.821L1010.75 523.946 1018.5 532.75 1010.75 539.446 1010.75 535.571C997.063 531.788 987.5 518.571 987.5 503.438Z" fill="#FFFFFF" fill-rule="evenodd"/><path d="M1018.5 470.25C1002.78 470.25 989.548 482.848 987.712 499.563 985.713 481.359 997.877 464.867 1014.88 462.727 1016.08 462.576 1017.29 462.5 1018.5 462.5Z" fill="#CDCDCD" fill-rule="evenodd"/><path d="M987.5 495.688C987.5 510.821 997.063 524.038 1010.75 527.821L1010.75 523.946 1018.5 532.75 1010.75 539.446 1010.75 535.571C997.063 531.788 987.5 518.571 987.5 503.438L987.5 495.688C987.5 477.359 1001.38 462.5 1018.5 462.5L1018.5 470.25C1002.78 470.25 989.548 482.848 987.712 499.563" stroke="#000000" stroke-miterlimit="8" fill="none" fill-rule="evenodd"/><path d="M1030 414.334C1030 405.313 1037.31 398 1046.33 398L1186.67 398C1195.69 398 1203 405.313 1203 414.334L1203 479.666C1203 488.687 1195.69 496 1186.67 496L1046.33 496C1037.31 496 1030 488.687 1030 479.666Z" stroke="#FFC000" stroke-width="2" stroke-miterlimit="8" fill="#FFF2CC" fill-rule="evenodd"/><text font-family="Times New Roman,Times New Roman_MSFontService,sans-serif" font-weight="700" font-size="21" transform="translate(1083.96 430)">Hyper<tspan font-size="21" x="57.3734" y="0">-</tspan><tspan font-size="21" x="-16.2" y="25">Parameter </tspan><tspan font-size="21" x="-28.3933" y="51">Optimization</tspan></text><path d="M1300 463.167C1300 454.238 1307.24 447 1316.17 447L1456.83 447C1465.76 447 1473 454.238 1473 463.167L1473 527.833C1473 536.762 1465.76 544 1456.83 544L1316.17 544C1307.24 544 1300 536.762 1300 527.833Z" stroke="#C00000" stroke-width="2" stroke-miterlimit="8" fill="#FFBDBD" fill-rule="evenodd"/><text font-family="Times New Roman,Times New Roman_MSFontService,sans-serif" font-weight="700" font-size="21" transform="translate(1317.14 504)">Auto<tspan font-size="21" x="50.3334" y="0">Ensemble</tspan></text><path d="M512.5 362.45C512.5 349.223 523.223 338.5 536.45 338.5L1463.55 338.5C1476.78 338.5 1487.5 349.223 1487.5 362.45L1487.5 635.55C1487.5 648.777 1476.78 659.5 1463.55 659.5L536.45 659.5C523.223 659.5 512.5 648.777 512.5 635.55Z" stroke="#000000" stroke-width="3" stroke-miterlimit="8" stroke-dasharray="24 9" fill="none" fill-rule="evenodd"/><text font-family="Times New Roman,Times New Roman_MSFontService,sans-serif" font-weight="700" font-size="21" transform="translate(1317.18 386)">AutoGL<tspan font-size="21" x="79.9867" y="0">Solver</tspan></text><g clip-path="url(#clip1)"><g clip-path="url(#clip2)"><g clip-path="url(#clip3)"><path d="M28.125 18.5625C28.125 19.1838 27.6213 19.6875 27 19.6875 26.3787 19.6875 25.875 19.1838 25.875 18.5625 25.875 17.9412 26.3787 17.4375 27 17.4375 27.6213 17.4375 28.125 17.9412 28.125 18.5625Z" transform="matrix(1 0 0 1.01852 550 351)"/><path d="M28.125 41.0625C28.125 41.6838 27.6213 42.1875 27 42.1875 26.3787 42.1875 25.875 41.6838 25.875 41.0625 25.875 40.4412 26.3787 39.9375 27 39.9375 27.6213 39.9375 28.125 40.4412 28.125 41.0625Z" transform="matrix(1 0 0 1.01852 550 351)"/><path d="M39.375 29.25C39.375 29.8713 38.8713 30.375 38.25 30.375 37.6287 30.375 37.125 29.8713 37.125 29.25 37.125 28.6287 37.6287 28.125 38.25 28.125 38.8713 28.125 39.375 28.6287 39.375 29.25Z" transform="matrix(1 0 0 1.01852 550 351)"/><path d="M16.875 29.25C16.875 29.8713 16.3713 30.375 15.75 30.375 15.1287 30.375 14.625 29.8713 14.625 29.25 14.625 28.6287 15.1287 28.125 15.75 28.125 16.3713 28.125 16.875 28.6287 16.875 29.25Z" transform="matrix(1 0 0 1.01852 550 351)"/><path d="M28.125 21.375 25.875 21.375 25.875 29.25C25.875 29.5312 25.9875 29.8125 26.2125 30.0375L31.7812 35.6063 33.3563 34.0312 28.125 28.8 28.125 21.375Z" transform="matrix(1 0 0 1.01852 550 351)"/><path d="M27 45.5625C18.2812 45.5625 11.25 38.5312 11.25 29.8125 11.25 21.0938 18.2812 14.0625 27 14.0625 35.7188 14.0625 42.75 21.0938 42.75 29.8125 42.75 38.5312 35.7188 45.5625 27 45.5625L27 45.5625ZM40.3312 16.0875 42.0187 14.4C42.6375 13.725 42.6375 12.7125 41.9625 12.0375 41.3438 11.4187 40.275 11.3625 39.6 11.9812L37.6875 13.95C34.9875 12.15 31.8938 11.025 28.6875 10.8L28.6875 8.4375 33.75 8.4375 33.75 5.0625 20.25 5.0625 20.25 8.4375 25.3125 8.4375 25.3125 10.7438C16.3687 11.5312 9.16875 18.45 8.04375 27.3938 6.91875 36.3375 12.15 44.8312 20.6438 47.8125 29.1375 50.7938 38.5312 47.5312 43.3125 39.8813 48.0938 32.2313 46.7437 22.3313 40.3312 16.0875L40.3312 16.0875Z" transform="matrix(1 0 0 1.01852 550 351)"/></g></g></g><path d="M956.5 512.5 956.5 505 941.5 505 941.5 490 956.5 490 956.5 482.5 971.5 497.5Z" stroke="#000000" stroke-miterlimit="8" fill="none" fill-rule="evenodd"/><path d="M1272.5 512.5 1272.5 505 1257.5 505 1257.5 490 1272.5 490 1272.5 482.5 1287.5 497.5Z" stroke="#000000" stroke-miterlimit="8" fill="none" fill-rule="evenodd"/><path d="M1238.5 506.813C1238.5 491.451 1228.94 478.035 1215.25 474.195L1215.25 478.07 1207.5 469.25 1215.25 462.57 1215.25 466.445C1228.94 470.285 1238.5 483.701 1238.5 499.063Z" fill="#FFFFFF" fill-rule="evenodd"/><path d="M1207.5 532.75C1223.24 532.75 1236.48 519.93 1238.29 502.938 1240.26 521.419 1228.07 538.136 1211.07 540.276 1209.88 540.425 1208.69 540.5 1207.5 540.5Z" fill="#CDCDCD" fill-rule="evenodd"/><path d="M1238.5 506.813C1238.5 491.451 1228.94 478.035 1215.25 474.195L1215.25 478.07 1207.5 469.25 1215.25 462.57 1215.25 466.445C1228.94 470.285 1238.5 483.701 1238.5 499.063L1238.5 506.813C1238.5 525.418 1224.62 540.5 1207.5 540.5L1207.5 532.75C1223.24 532.75 1236.48 519.93 1238.29 502.938" stroke="#000000" stroke-miterlimit="8" fill="none" fill-rule="evenodd"/><text font-family="Times New Roman,Times New Roman_MSFontService,sans-serif" font-weight="700" font-size="21" transform="translate(205.005 571)">Data</text><path d="M752 462.167C752 453.238 759.238 446 768.167 446L908.833 446C917.762 446 925 453.238 925 462.167L925 526.833C925 535.762 917.762 543 908.833 543L768.167 543C759.238 543 752 535.762 752 526.833Z" stroke="#7030A0" stroke-width="2" stroke-miterlimit="8" fill="#FEF3FF" fill-rule="evenodd"/><text font-family="Times New Roman,Times New Roman_MSFontService,sans-serif" font-weight="700" font-size="21" transform="translate(807.187 477)">Neural <tspan font-size="21" x="-26.36" y="25">Architecture </tspan><tspan font-size="21" x="0.193359" y="51">Search</tspan></text><path d="M483 511.5 483 504.25 466.5 504.25 466.5 489.75 483 489.75 483 482.5 497.5 497Z" stroke="#000000" stroke-miterlimit="8" fill="none" fill-rule="evenodd"/></g></svg>