<svg width="1436" height="756" xmlns="http://www.w3.org/2000/svg" xmlns:xlink="http://www.w3.org/1999/xlink" overflow="hidden"><defs><filter id="fx0" x="-10%" y="-10%" width="120%" height="120%" filterUnits="userSpaceOnUse" primitiveUnits="userSpaceOnUse"><feComponentTransfer color-interpolation-filters="sRGB"><feFuncR type="discrete" tableValues="0 0"/><feFuncG type="discrete" tableValues="0 0"/><feFuncB type="discrete" tableValues="0 0"/><feFuncA type="linear" slope="0.4" intercept="0"/></feComponentTransfer><feGaussianBlur stdDeviation="0.572137 0.572329"/></filter><filter id="fx1" x="-10%" y="-10%" width="120%" height="120%" filterUnits="userSpaceOnUse" primitiveUnits="userSpaceOnUse"><feComponentTransfer color-interpolation-filters="sRGB"><feFuncR type="discrete" tableValues="0 0"/><feFuncG type="discrete" tableValues="0 0"/><feFuncB type="discrete" tableValues="0 0"/><feFuncA type="linear" slope="0.4" intercept="0"/></feComponentTransfer><feGaussianBlur stdDeviation="0.572137 0.572329"/></filter><clipPath id="clip2"><rect x="0" y="0" width="1436" height="756"/></clipPath><clipPath id="clip3"><rect x="163" y="293" width="24" height="23"/></clipPath><clipPath id="clip4"><rect x="163" y="293" width="24" height="23"/></clipPath><clipPath id="clip5"><rect x="163" y="293" width="24" height="23"/></clipPath><clipPath id="clip6"><rect x="142" y="270" width="22" height="23"/></clipPath><clipPath id="clip7"><rect x="142" y="270" width="22" height="23"/></clipPath><clipPath id="clip8"><rect x="142" y="270" width="22" height="23"/></clipPath><clipPath id="clip9"><rect x="113" y="294" width="22" height="22"/></clipPath><clipPath id="clip10"><rect x="113" y="294" width="22" height="22"/></clipPath><clipPath id="clip11"><rect x="113" y="294" width="22" height="22"/></clipPath><clipPath id="clip12"><rect x="186" y="270" width="23" height="23"/></clipPath><clipPath id="clip13"><rect x="186" y="270" width="23" height="23"/></clipPath><clipPath id="clip14"><rect x="186" y="270" width="23" height="23"/></clipPath><clipPath id="clip15"><rect x="111" y="240" width="22" height="22"/></clipPath><clipPath id="clip16"><rect x="111" y="240" width="22" height="22"/></clipPath><clipPath id="clip17"><rect x="111" y="240" width="22" height="22"/></clipPath><clipPath id="clip18"><rect x="147" y="238" width="22" height="22"/></clipPath><clipPath id="clip19"><rect x="147" y="238" width="22" height="22"/></clipPath><clipPath id="clip20"><rect x="147" y="238" width="22" height="22"/></clipPath><clipPath id="clip21"><rect x="181" y="238" width="24" height="22"/></clipPath><clipPath id="clip22"><rect x="181" y="238" width="24" height="22"/></clipPath><clipPath id="clip23"><rect x="181" y="238" width="24" height="22"/></clipPath><clipPath id="clip24"><rect x="19" y="29" width="21" height="5"/></clipPath><clipPath id="clip25"><rect x="0" y="0" width="59" height="57"/></clipPath><clipPath id="clip26"><rect x="19" y="29" width="21" height="5"/></clipPath><clipPath id="clip27"><rect x="0" y="0" width="59" height="57"/></clipPath></defs><g clip-path="url(#clip2)"><rect x="0" y="0" width="1436" height="756.254" fill="#FFFFFF"/><path d="M101 53.4768C101 41.069 111.055 31.0104 123.459 31.0104L1370.54 31.0104C1382.94 31.0104 1393 41.069 1393 53.4768L1393 499.709C1393 512.117 1382.94 522.176 1370.54 522.176L123.459 522.176C111.055 522.176 101 512.117 101 499.709Z" fill="#F5F5F5" fill-rule="evenodd"/><path d="M247 281.762C247 270.896 273.415 262.088 306 262.088 338.585 262.088 365 270.896 365 281.762L365 360.455C365 371.32 338.585 380.128 306 380.128 273.415 380.128 247 371.32 247 360.455Z" fill="#FBE5D6" fill-rule="evenodd"/><path d="M365 281.762C365 292.627 338.585 301.435 306 301.435 273.415 301.435 247 292.627 247 281.762" stroke="#F4B183" stroke-width="1.99977" stroke-miterlimit="8" fill="none" fill-rule="evenodd"/><path d="M247 281.762C247 270.896 273.415 262.088 306 262.088 338.585 262.088 365 270.896 365 281.762L365 360.455C365 371.32 338.585 380.128 306 380.128 273.415 380.128 247 371.32 247 360.455Z" stroke="#F4B183" stroke-width="1.99977" stroke-miterlimit="8" fill="none" fill-rule="evenodd"/><text font-family="Times New Roman,Times New Roman_MSFontService,sans-serif" font-weight="700" font-size="21" transform="matrix(1 0 0 1.00034 268.334 326)">AutoGL<tspan font-size="21" x="3.49957" y="24.9916">Dataset</tspan></text><path d="M0 0 28.3252 29.3076" stroke="#000000" stroke-width="0.666589" stroke-miterlimit="8" fill="none" fill-rule="evenodd" transform="matrix(1 0 0 -1.00034 162.5 376.934)"/><path d="M0 0 23.5362 14.2286" stroke="#000000" stroke-width="0.666589" stroke-miterlimit="8" fill="none" fill-rule="evenodd" transform="matrix(1 0 0 -1.00034 129.5 360.85)"/><path d="M162.5 376.627 192.831 388.788" stroke="#000000" stroke-width="0.666589" stroke-miterlimit="8" fill="none" fill-rule="evenodd"/><path d="M192.97 389.064 190.5 346.617" stroke="#000000" stroke-width="0.666589" stroke-miterlimit="8" fill="none" fill-rule="evenodd"/><path d="M201.435 356.009 190.5 346.617" stroke="#000000" stroke-width="0.666589" stroke-miterlimit="8" fill="none" fill-rule="evenodd"/><path d="M0 0 4.91187 36.8392" stroke="#000000" stroke-width="0.666589" stroke-miterlimit="8" fill="none" fill-rule="evenodd" transform="matrix(1 0 0 -1.00034 156.5 414.479)"/><path d="M130.5 360.621 160.831 376.836" stroke="#000000" stroke-width="0.666589" stroke-miterlimit="8" fill="none" fill-rule="evenodd"/><path d="M0 0 31.1335 19.2795" stroke="#000000" stroke-width="0.666589" stroke-miterlimit="8" fill="none" fill-rule="evenodd" transform="matrix(1 0 0 -1.00034 128.5 397.913)"/><path d="M155.515 414.463 128.5 397.634" stroke="#000000" stroke-width="0.666589" stroke-miterlimit="8" fill="none" fill-rule="evenodd"/><path d="M146.5 346.116C146.5 342.525 149.41 339.614 153 339.614 156.59 339.614 159.5 342.525 159.5 346.116 159.5 349.708 156.59 352.619 153 352.619 149.41 352.619 146.5 349.708 146.5 346.116Z" stroke="#2F528F" stroke-width="1.33318" stroke-miterlimit="8" fill="#4472C4" fill-rule="evenodd"/><path d="M124.626 359.646C124.85 356.757 127.374 354.597 130.262 354.822 133.151 355.046 135.31 357.571 135.085 360.46 134.861 363.35 132.337 365.51 129.449 365.285 126.56 365.06 124.401 362.535 124.626 359.646Z" stroke="#507E32" stroke-width="1.33318" stroke-miterlimit="8" fill="#70AD47" fill-rule="evenodd"/><path d="M187.5 347.117C187.5 345.736 188.619 344.616 190 344.616 191.381 344.616 192.5 345.736 192.5 347.117 192.5 348.498 191.381 349.618 190 349.618 188.619 349.618 187.5 348.498 187.5 347.117Z" stroke="#AE5A21" stroke-width="1.33318" stroke-miterlimit="8" fill="#ED7D31" fill-rule="evenodd"/><path d="M160.55 369.996C164.181 369.829 167.26 372.637 167.427 376.269 167.594 379.901 164.786 382.981 161.155 383.148 157.525 383.315 154.446 380.507 154.279 376.875 154.112 373.243 156.92 370.163 160.55 369.996Z" stroke="#787878" stroke-width="1.33363" stroke-miterlimit="8" fill="#A5A5A5" fill-rule="evenodd"/><path d="M153.342 408.964C156.047 407.926 159.08 409.278 160.118 411.984 161.156 414.69 159.804 417.725 157.1 418.763 154.395 419.801 151.361 418.449 150.323 415.743 149.285 413.037 150.637 410.002 153.342 408.964Z" stroke="#BF9000" stroke-width="1.33357" stroke-miterlimit="8" fill="#FFC000" fill-rule="evenodd"/><path d="M126.97 394.575C128.273 394.075 129.735 394.726 130.235 396.03 130.735 397.333 130.083 398.796 128.78 399.296 127.477 399.796 126.015 399.145 125.515 397.841 125.015 396.537 125.666 395.075 126.97 394.575Z" stroke="#41719C" stroke-width="1.33357" stroke-miterlimit="8" fill="#5B9BD5" fill-rule="evenodd"/><path d="M187.956 386.753C189.207 384.509 192.039 383.705 194.281 384.956 196.524 386.207 197.329 389.039 196.078 391.283 194.828 393.527 191.996 394.331 189.753 393.08 187.51 391.829 186.706 388.997 187.956 386.753Z" stroke="#7030A0" stroke-width="1.33329" stroke-miterlimit="8" fill="#7030A0" fill-rule="evenodd"/><path d="M202.798 354.81C204.579 354.728 206.089 356.105 206.171 357.886 206.253 359.667 204.876 361.178 203.095 361.26 201.315 361.342 199.805 359.964 199.723 358.183 199.641 356.402 201.018 354.892 202.798 354.81Z" stroke="#C55A11" stroke-width="1.33363" stroke-miterlimit="8" fill="#FF0000" fill-rule="evenodd"/><path d="M648.5 337.614 648.5 330.111 632.5 330.111 632.5 315.106 648.5 315.106 648.5 307.604 663.5 322.609Z" stroke="#000000" stroke-width="1.00022" stroke-miterlimit="8" fill="#FFFFFF" fill-rule="evenodd"/><path d="M223 337.614 223 330.361 207.5 330.361 207.5 315.856 223 315.856 223 308.604 237.5 323.109Z" stroke="#000000" stroke-width="1.00022" stroke-miterlimit="8" fill="#FFFFFF" fill-rule="evenodd"/><path d="M460 288.264C460 279.332 467.238 272.092 476.167 272.092L594.833 272.092C603.762 272.092 611 279.332 611 288.264L611 352.952C611 361.884 603.762 369.124 594.833 369.124L476.167 369.124C467.238 369.124 460 361.884 460 352.952Z" stroke="#8FAADC" stroke-width="1.99977" stroke-miterlimit="8" fill="#DAE3F3" fill-rule="evenodd"/><text font-family="Times New Roman,Times New Roman_MSFontService,sans-serif" font-weight="700" font-size="21" transform="matrix(1 0 0 1.00034 475.071 316)">Auto Feature <tspan font-size="21" x="4.80612" y="24.9916">Engineering</tspan></text><path d="M935 355.287C935 346.355 942.238 339.114 951.167 339.114L1070.83 339.114C1079.76 339.114 1087 346.355 1087 355.287L1087 419.974C1087 428.906 1079.76 436.147 1070.83 436.147L951.167 436.147C942.238 436.147 935 428.906 935 419.974Z" stroke="#70AD47" stroke-width="1.99977" stroke-miterlimit="8" fill="#E2F0D9" fill-rule="evenodd"/><text font-family="Times New Roman,Times New Roman_MSFontService,sans-serif" font-weight="700" font-size="21" transform="matrix(1 0 0 1.00034 981.854 383)">Model <tspan font-size="21" x="-10.4521" y="24.9916">Training</tspan></text><path d="M892.5 322.108C892.5 337.389 902.371 350.735 916.5 354.556L916.5 350.554 924.5 359.621 916.5 366.56 916.5 362.558C902.371 358.738 892.5 345.392 892.5 330.111Z" fill="#FFFFFF" fill-rule="evenodd"/><path d="M924.5 296.6C908.305 296.6 894.663 309.271 892.729 326.11 890.619 307.734 903.132 291.047 920.679 288.837 921.947 288.677 923.223 288.597 924.5 288.597Z" fill="#CDCDCD" fill-rule="evenodd"/><path d="M892.5 322.108C892.5 337.389 902.371 350.735 916.5 354.556L916.5 350.554 924.5 359.621 916.5 366.56 916.5 362.558C902.371 358.738 892.5 345.392 892.5 330.111L892.5 322.108C892.5 303.601 906.827 288.597 924.5 288.597L924.5 296.6C908.305 296.6 894.663 309.271 892.729 326.11" stroke="#000000" stroke-width="0.999884" stroke-miterlimit="8" fill="none" fill-rule="evenodd"/><path d="M935 236.246C935 227.315 942.238 220.074 951.167 220.074L1070.83 220.074C1079.76 220.074 1087 227.315 1087 236.246L1087 300.934C1087 309.866 1079.76 317.107 1070.83 317.107L951.167 317.107C942.238 317.107 935 309.866 935 300.934Z" stroke="#FFC000" stroke-width="1.99977" stroke-miterlimit="8" fill="#FFF2CC" fill-rule="evenodd"/><text font-family="Times New Roman,Times New Roman_MSFontService,sans-serif" font-weight="700" font-size="21" transform="matrix(1 0 0 1.00034 978.668 251)">Hyper<tspan font-size="21" x="57.3666" y="0">-</tspan><tspan font-size="21" x="-16.1981" y="24.9916">Parameter </tspan><tspan font-size="21" x="-28.39" y="50.9828">Optimization</tspan></text><path d="M1184 288.264C1184 279.332 1191.24 272.092 1200.17 272.092L1319.83 272.092C1328.76 272.092 1336 279.332 1336 288.264L1336 352.952C1336 361.884 1328.76 369.124 1319.83 369.124L1200.17 369.124C1191.24 369.124 1184 361.884 1184 352.952Z" stroke="#C00000" stroke-width="1.99977" stroke-miterlimit="8" fill="#FFBDBD" fill-rule="evenodd"/><text font-family="Times New Roman,Times New Roman_MSFontService,sans-serif" font-weight="700" font-size="21" transform="matrix(1 0 0 1.00034 1237.52 316)">Auto<tspan font-size="21" x="-21.9974" y="24.9916">Ensemble</tspan></text><path d="M433.5 189.514C433.5 176.282 444.223 165.556 457.45 165.556L1329.55 165.556C1342.78 165.556 1353.5 176.282 1353.5 189.514L1353.5 462.706C1353.5 475.937 1342.78 486.664 1329.55 486.664L457.45 486.664C444.223 486.664 433.5 475.937 433.5 462.706Z" stroke="#000000" stroke-width="2.99965" stroke-miterlimit="8" stroke-dasharray="23.9972 8.99896" fill="none" fill-rule="evenodd"/><text font-family="Times New Roman,Times New Roman_MSFontService,sans-serif" font-weight="700" font-size="27" transform="matrix(1 0 0 1.00034 1139.66 205)">AutoGL<tspan font-size="27" x="100.015" y="0">Solver</tspan></text><path d="M861.5 337.614 861.5 330.111 846.5 330.111 846.5 315.106 861.5 315.106 861.5 307.603 876.5 322.608Z" stroke="#000000" stroke-width="1.00022" stroke-miterlimit="8" fill="#FFFFFF" fill-rule="evenodd"/><path d="M1159.5 336.613 1159.5 329.111 1144.5 329.111 1144.5 314.106 1159.5 314.106 1159.5 306.603 1174.5 321.608Z" stroke="#000000" stroke-width="1.00022" stroke-miterlimit="8" fill="#FFFFFF" fill-rule="evenodd"/><path d="M1126.5 330.924C1126.5 315.557 1116.94 302.137 1103.25 298.295L1103.25 302.171 1095.5 293.349 1103.25 286.666 1103.25 290.543C1116.94 294.384 1126.5 307.805 1126.5 323.171Z" fill="#FFFFFF" fill-rule="evenodd"/><path d="M1095.5 356.87C1111.24 356.87 1124.48 344.046 1126.29 327.048 1128.26 345.535 1116.07 362.258 1099.07 364.399 1097.88 364.548 1096.69 364.623 1095.5 364.623Z" fill="#CDCDCD" fill-rule="evenodd"/><path d="M1126.5 330.924C1126.5 315.557 1116.94 302.137 1103.25 298.295L1103.25 302.171 1095.5 293.349 1103.25 286.666 1103.25 290.543C1116.94 294.384 1126.5 307.805 1126.5 323.171L1126.5 330.924C1126.5 349.535 1112.62 364.623 1095.5 364.623L1095.5 356.87C1111.24 356.87 1124.48 344.046 1126.29 327.048" stroke="#000000" stroke-width="0.999884" stroke-miterlimit="8" fill="none" fill-rule="evenodd"/><text font-family="Times New Roman,Times New Roman_MSFontService,sans-serif" font-weight="700" font-size="24" transform="matrix(1 0 0 1.00034 125.214 447)">Graph <tspan font-size="24" x="12.3252" y="28.9902">Data</tspan></text><path d="M673 288.264C673 279.332 680.238 272.092 689.167 272.092L807.833 272.092C816.762 272.092 824 279.332 824 288.264L824 352.952C824 361.884 816.762 369.124 807.833 369.124L689.167 369.124C680.238 369.124 673 361.884 673 352.952Z" stroke="#7030A0" stroke-width="1.99977" stroke-miterlimit="8" fill="#FEF3FF" fill-rule="evenodd"/><text font-family="Times New Roman,Times New Roman_MSFontService,sans-serif" font-weight="700" font-size="21" transform="matrix(1 0 0 1.00034 717.305 304)">Neural <tspan font-size="21" x="-26.3569" y="24.9916">Architecture </tspan><tspan font-size="21" x="0.193298" y="50.9828">Search</tspan></text><path d="M103 544.681C103 538.329 108.148 533.179 114.498 533.179L1381.5 533.179C1387.85 533.179 1393 538.329 1393 544.681L1393 608.707C1393 615.059 1387.85 620.209 1381.5 620.209L114.498 620.209C108.148 620.209 103 615.059 103 608.707Z" fill="#F5F5F5" fill-rule="evenodd"/><text fill="#FF0000" font-family="Times New Roman,Times New Roman_MSFontService,sans-serif" font-weight="700" font-size="27" transform="matrix(6.12323e-17 -1.00067 0.999664 6.1253e-17 63.5372 325)">AutoGL</text><path d="M341 556.354C341 550.737 345.552 546.184 351.167 546.184L708.833 546.184C714.448 546.184 719 550.737 719 556.354L719 597.034C719 602.651 714.448 607.204 708.833 607.204L351.167 607.204C345.552 607.204 341 602.651 341 597.034Z" stroke="#A6A6A6" stroke-width="1.99977" stroke-miterlimit="8" fill="#D6DCE5" fill-rule="evenodd"/><text font-family="Times New Roman,Times New Roman_MSFontService,sans-serif" font-weight="700" font-size="24" transform="matrix(1 0 0 1.00034 429.922 586)">PyTorch Geometric</text><path d="M776 556.354C776 550.737 780.552 546.184 786.167 546.184L1143.83 546.184C1149.45 546.184 1154 550.737 1154 556.354L1154 597.034C1154 602.651 1149.45 607.204 1143.83 607.204L786.167 607.204C780.552 607.204 776 602.651 776 597.034Z" stroke="#A6A6A6" stroke-width="1.99977" stroke-miterlimit="8" fill="#D6DCE5" fill-rule="evenodd"/><text font-family="Times New Roman,Times New Roman_MSFontService,sans-serif" font-weight="700" font-size="24" transform="matrix(1 0 0 1.00034 858.376 586)">Deep Graph Library</text><path d="M401.5 337.614 401.5 330.111 386.5 330.111 386.5 315.106 401.5 315.106 401.5 307.603 416.5 322.608Z" stroke="#000000" stroke-width="1.00022" stroke-miterlimit="8" fill="#FFFFFF" fill-rule="evenodd"/><text font-family="Times New Roman,Times New Roman_MSFontService,sans-serif" font-weight="700" font-size="24" transform="matrix(6.12323e-17 -1.00067 0.999664 6.1253e-17 63.7685 622)">Backend</text><g clip-path="url(#clip3)"><g clip-path="url(#clip4)"><g clip-path="url(#clip5)"><path d="M16.3626 14.575C15.5378 13.7838 14.5454 13.1885 13.459 12.8334 12.6732 12.5354 11.8404 12.3801 11 12.375 10.161 12.3939 9.33057 12.5487 8.54107 12.8334 7.47141 13.2243 6.48599 13.8154 5.63752 14.575 5.25428 14.9669 5.04029 15.4936 5.04168 16.0417L5.04168 18.7917 10.7709 18.7917 10.7709 14.2473 8.5594 15.3267C8.53007 15.3409 8.49803 15.3488 8.46544 15.3496 8.41924 15.3484 8.37451 15.3332 8.33711 15.3061 8.27182 15.2591 8.23893 15.1791 8.25232 15.0998L8.53419 13.3261 8.68774 13.2665C8.9994 13.1634 9.29274 13.0786 9.57691 13.0121 10.077 13.798 11.1196 14.0296 11.9054 13.5295 12.1175 13.3945 12.2968 13.2138 12.43 13.0007 12.727 13.0705 13.0193 13.1585 13.3055 13.2642L13.4659 13.3261 13.75 15.0998C13.7634 15.1791 13.7305 15.2591 13.6653 15.3061 13.6279 15.3332 13.5831 15.3484 13.5369 15.3496 13.5043 15.3488 13.4723 15.3409 13.443 15.3267L11.2292 14.2473 11.2292 18.7917 16.9584 18.7917 16.9584 16.0417C16.9598 15.4936 16.7458 14.9669 16.3626 14.575Z" transform="matrix(1 0 0 1.00033 164 293.099)"/><path d="M13.278 10.2117C13.2779 10.046 13.3147 9.88241 13.3857 9.73274 13.179 9.16039 13.075 8.55603 13.0786 7.94753L12.1092 7.94753C11.409 7.94585 10.7606 7.5782 10.3996 6.97815 10.0681 7.4844 9.53107 7.81954 8.93065 7.89482 8.93934 8.51941 8.83532 9.14048 8.62357 9.72816 8.75319 10.0023 8.76641 10.3172 8.66024 10.6013 10.0138 11.7429 11.9931 11.7429 13.3467 10.6013 13.3014 10.4764 13.2781 10.3446 13.278 10.2117Z" transform="matrix(1 0 0 1.00033 164 293.099)"/><path d="M15.7942 12.5813C15.3782 12.3853 15.051 12.0401 14.8775 11.6142 14.7899 11.3597 14.7442 11.0927 14.7423 10.8236 15.0802 10.6503 15.2137 10.236 15.0405 9.89813 14.991 9.80172 14.9195 9.71835 14.8317 9.65482 15.0573 9.0754 15.1648 8.45678 15.148 7.83523 15.148 7.62669 15.148 7.42502 15.1182 7.23252 14.9886 4.95804 13.0397 3.21923 10.7652 3.3488 8.56614 3.47409 6.85346 5.30497 6.87502 7.50752 6.87502 7.50752 6.87502 7.52357 6.87502 7.53273 6.87502 7.63203 6.87502 7.73286 6.87502 7.83523 6.85708 8.45685 6.96465 9.07572 7.19127 9.65482 6.88366 9.87741 6.81475 10.3072 7.03734 10.6148 7.10087 10.7026 7.18424 10.7741 7.28065 10.8236 7.27772 11.0928 7.23129 11.3598 7.14315 11.6142 6.96836 12.0393 6.64159 12.384 6.22648 12.5813 6.11082 12.6327 6.0587 12.7681 6.11008 12.8838 6.1413 12.954 6.20567 13.0039 6.28148 13.0167 6.48546 13.048 6.69157 13.0634 6.89794 13.0625 7.2418 13.0751 7.58409 13.0101 7.8994 12.8723 8.16743 12.743 8.36635 12.504 8.44482 12.2169 8.53247 11.8581 8.47482 11.4792 8.2844 11.1627 8.20335 10.9945 8.15437 10.8127 8.14003 10.6265 8.17924 10.5755 8.21089 10.5192 8.23398 10.4592L8.24774 10.4179C8.25754 10.3864 8.2652 10.3543 8.27065 10.3217 8.27799 10.2855 8.28181 10.2486 8.28211 10.2117 8.28516 10.0431 8.22461 9.87943 8.11253 9.75336 8.37841 9.14999 8.50378 8.49414 8.47919 7.83523 8.47919 7.71607 8.47919 7.60607 8.47919 7.4869 9.35003 7.4869 9.95732 7.0744 10.1567 6.44648L10.3859 5.66731 10.6677 6.45565C10.8799 7.07541 11.4633 7.49109 12.1184 7.48919L13.5553 7.48919C13.5553 7.60148 13.5553 7.71836 13.5553 7.83523 13.5296 8.49815 13.6558 9.15812 13.9242 9.76482 13.8135 9.89167 13.7531 10.0548 13.7546 10.2232 13.7557 10.2678 13.7603 10.3122 13.7684 10.3561 13.7684 10.3767 13.7684 10.3996 13.7867 10.4202 13.7918 10.4382 13.7979 10.4558 13.805 10.4729 13.8283 10.5317 13.8591 10.5872 13.8967 10.6379 13.8832 10.8243 13.8342 11.0063 13.7523 11.1742 13.5619 11.4907 13.5043 11.8696 13.5919 12.2284 13.6704 12.5155 13.8693 12.7545 14.1373 12.8838 14.4493 13.0156 14.7866 13.0767 15.125 13.0625 15.3314 13.0632 15.5375 13.0479 15.7415 13.0167 15.8663 12.9957 15.9505 12.8775 15.9294 12.7527 15.9167 12.6769 15.8668 12.6125 15.7965 12.5813Z" transform="matrix(1 0 0 1.00033 164 293.099)"/></g></g></g><g clip-path="url(#clip6)"><g clip-path="url(#clip7)"><g clip-path="url(#clip8)"><path d="M15.6187 13.9125C14.8315 13.1572 13.8842 12.5889 12.8472 12.25 12.0971 11.9655 11.3022 11.8174 10.5 11.8125 9.6991 11.8305 8.90642 11.9783 8.1528 12.25 7.13177 12.6231 6.19114 13.1874 5.38124 13.9125 5.01543 14.2865 4.81116 14.7893 4.81249 15.3125L4.81249 17.9375 10.2812 17.9375 10.2812 13.5997 8.1703 14.63C8.1427 14.6446 8.11188 14.6521 8.08062 14.6519 8.03621 14.6526 7.99294 14.6379 7.95812 14.6103 7.89492 14.5662 7.86329 14.4892 7.87718 14.4134L8.14624 12.7225 8.2928 12.6656C8.5903 12.565 8.8703 12.4862 9.14155 12.4228 9.61954 13.1726 10.6149 13.3929 11.3646 12.9149 11.567 12.7859 11.7379 12.6133 11.865 12.4097 12.1485 12.477 12.4275 12.5618 12.7006 12.6634L12.8537 12.7203 13.125 14.4134C13.1389 14.4892 13.1072 14.5662 13.044 14.6103 13.0092 14.6379 12.966 14.6526 12.9215 14.6519 12.8903 14.6521 12.8595 14.6446 12.8319 14.63L10.7187 13.5997 10.7187 17.9375 16.1875 17.9375 16.1875 15.3125C16.1888 14.7893 15.9845 14.2865 15.6187 13.9125Z" transform="matrix(1 0 0 1.04798 143 270.091)"/><path d="M13.2759 7.0853C13.0542 6.57826 12.7463 6.11347 12.3659 5.71156 11.9835 6.11222 11.5512 6.46215 11.0797 6.75281 10.4077 7.13831 9.70092 7.45983 8.96874 7.71312 8.85429 7.75184 8.73015 7.69043 8.69143 7.57598 8.66146 7.48739 8.69115 7.38952 8.7653 7.33249 8.97161 7.14489 9.1363 6.9161 9.24874 6.66093 9.27499 6.60406 9.29686 6.55374 9.31437 6.50343 9.17185 6.65238 9.01588 6.78785 8.84843 6.90812 8.49088 7.16139 8.09503 7.35561 7.67593 7.48343 7.50977 7.71406 7.39013 7.97485 7.32374 8.25124 7.29054 8.41581 7.2686 8.58245 7.25812 8.74999 7.98524 10.541 10.0266 11.4035 11.8176 10.6763 12.6753 10.3282 13.3601 9.65439 13.7222 8.80249 13.6428 8.21427 13.493 7.63774 13.2759 7.0853Z" transform="matrix(1 0 0 1.04798 143 270.091)"/><path d="M7.37624 7.1553C7.4061 7.11746 7.44764 7.09056 7.49437 7.07874 7.88604 6.96692 8.25588 6.78938 8.58812 6.55374 8.91057 6.3164 9.18769 6.02297 9.40624 5.68749 9.44756 5.61758 9.52419 5.57633 9.6053 5.58031 9.68596 5.58501 9.75744 5.63379 9.79124 5.70718 9.81093 5.74874 9.97499 6.14468 9.6403 6.84687 9.61186 6.90812 9.58124 6.96499 9.5528 7.01749 9.99901 6.837 10.4311 6.6235 10.8456 6.37874 11.3482 6.07306 11.8011 5.69244 12.1887 5.24999 12.2274 5.20338 12.2836 5.17488 12.344 5.17124 12.4053 5.16672 12.4656 5.18815 12.5103 5.23031 13.0058 5.71368 13.4038 6.28772 13.6828 6.92124 13.8163 7.25877 13.9259 7.60525 14.0109 7.95812 14.1698 7.74978 14.2613 7.49795 14.2734 7.23624 14.2746 6.12418 13.7797 5.06955 12.9237 4.35968L13.6544 3.99875C13.7464 3.95047 13.7818 3.83676 13.7335 3.74476 13.6958 3.6729 13.6163 3.6333 13.5362 3.64656L12.4972 3.83468 12.7531 3.465C12.8048 3.38889 12.7947 3.28665 12.729 3.22218 12.6626 3.15816 12.5592 3.15258 12.4862 3.20906L11.935 3.62468 11.3859 2.625C11.3346 2.53465 11.2198 2.50304 11.1294 2.55436 11.0627 2.59229 11.0256 2.66702 11.0359 2.74312L11.1562 3.55031C10.9467 3.51362 10.7345 3.49461 10.5219 3.49343 8.45527 3.49584 6.78124 5.17183 6.78124 7.23843 6.78564 7.47138 6.85455 7.69855 6.9803 7.89468 7.07389 7.62951 7.20741 7.38018 7.37624 7.1553Z" transform="matrix(1 0 0 1.04798 143 270.091)"/></g></g></g><g clip-path="url(#clip9)"><g clip-path="url(#clip10)"><g clip-path="url(#clip11)"><path d="M12.25 2.40625C12.25 3.37274 11.4665 4.15625 10.5 4.15625 9.53349 4.15625 8.74999 3.37274 8.74999 2.40625 8.74999 1.43975 9.53349 0.656249 10.5 0.656249 11.4665 0.656249 12.25 1.43975 12.25 2.40625Z" transform="matrix(1 0 0 1.00034 114 294.099)"/><path d="M15.2687 11.4187 14.0437 6.21249C14 6.03749 13.9125 5.86249 13.7812 5.73124 13.2562 5.29374 12.6437 4.98749 11.9437 4.76874 11.4625 4.68124 10.9812 4.59375 10.5 4.59375 10.0187 4.59375 9.53749 4.68124 9.05624 4.81249 8.35624 4.98749 7.74374 5.33749 7.21874 5.77499 7.08749 5.90624 6.99999 6.08124 6.95624 6.25624L5.73124 11.4625C5.73124 11.5062 5.68749 11.5937 5.68749 11.6812 5.68749 12.1625 6.08124 12.5562 6.56249 12.5562 6.95624 12.5562 7.30624 12.25 7.39374 11.9L8.31249 8.09374 8.31249 20.3437 10.0625 20.3437 10.0625 12.4687 10.9375 12.4687 10.9375 20.3437 12.6875 20.3437 12.6875 8.04999 13.6062 11.8562C13.6937 12.2062 14.0437 12.5125 14.4375 12.5125 14.9187 12.5125 15.3125 12.1187 15.3125 11.6375 15.3125 11.55 15.2687 11.4625 15.2687 11.4187Z" transform="matrix(1 0 0 1.00034 114 294.099)"/></g></g></g><g clip-path="url(#clip12)"><g clip-path="url(#clip13)"><g clip-path="url(#clip14)"><path d="M12.8562 2.52083C12.8562 3.53335 12.0354 4.35416 11.0229 4.35416 10.0104 4.35416 9.18957 3.53335 9.18957 2.52083 9.18957 1.50831 10.0104 0.687499 11.0229 0.687499 12.0354 0.687499 12.8562 1.50831 12.8562 2.52083Z" transform="matrix(1 0 0 1.00034 186 270.091)"/><path d="M16.0187 11.8708 14.3687 6.18749C14.3229 5.95832 14.1854 5.77499 14.0021 5.68332 13.4521 5.31666 12.8104 5.08749 12.0771 4.90416 11.7104 4.85833 11.3896 4.81249 11.0229 4.81249 10.6562 4.81249 10.3354 4.85833 9.96873 4.90416 9.2354 5.04166 8.59374 5.31666 8.04374 5.68332 7.8604 5.82082 7.72291 5.95832 7.67707 6.18749L5.98124 11.8708C5.84374 12.375 6.11874 12.8791 6.62291 13.0166 6.71457 13.0625 6.80624 13.0625 6.89791 13.0625 7.31041 13.0625 7.67707 12.7875 7.76874 12.4208L9.18957 7.60832 9.18957 9.21249 7.49374 14.8958 8.73124 14.8958 8.73124 21.3125 10.5646 21.3125 10.5646 14.8958 11.4812 14.8958 11.4812 21.3125 13.3146 21.3125 13.3146 14.8958 14.5521 14.8958 12.8562 9.21249 12.8562 7.60832 14.2771 12.4208C14.4146 12.8333 14.7812 13.0625 15.1479 13.0625 15.2396 13.0625 15.3312 13.0625 15.4229 13.0166 15.8812 12.8791 16.1562 12.375 16.0187 11.8708Z" transform="matrix(1 0 0 1.00034 186 270.091)"/></g></g></g><g clip-path="url(#clip15)"><g clip-path="url(#clip16)"><g clip-path="url(#clip17)"><path d="M18.8189 4.81414 18.8189 15.5365 2.18824 15.5365 2.18824 4.81414 0.875298 4.81414 0.875298 17.0683 8.53415 17.0683C8.53415 17.4403 8.81863 17.7248 9.19063 17.7248L11.8165 17.7248C12.1885 17.7248 12.473 17.4403 12.473 17.0683L20.1319 17.0683 20.1319 4.81414 18.8189 4.81414Z" transform="matrix(1.04726 0 0 1 111 240.081)"/><path d="M17.9436 3.50119 3.06354 3.50119 3.06354 14.6612 17.9436 14.6612 17.9436 3.50119ZM4.37649 4.81414 10.0659 4.81414 10.0659 13.3483 4.37649 13.3483 4.37649 4.81414ZM16.6307 13.3483 10.9412 13.3483 10.9412 4.81414 16.6307 4.81414 16.6307 13.3483Z" transform="matrix(1.04726 0 0 1 111 240.081)"/><path d="M12.2542 7.00238 15.3177 7.00238 15.3177 7.65886 12.2542 7.65886Z" transform="matrix(1.04726 0 0 1 111 240.081)"/><path d="M12.2542 8.31533 15.3177 8.31533 15.3177 8.9718 12.2542 8.9718Z" transform="matrix(1.04726 0 0 1 111 240.081)"/><path d="M12.2542 9.62828 14.3768 9.62828 14.3768 10.2848 12.2542 10.2848Z" transform="matrix(1.04726 0 0 1 111 240.081)"/></g></g></g><g clip-path="url(#clip18)"><g clip-path="url(#clip19)"><g clip-path="url(#clip20)"><path d="M19.8187 7.94062 18.6812 7.52499 18.6812 5.14062 19.8187 4.65937 12.1187 1.81562 2.75625 5.09687C1.85937 5.53437 1.8375 6.73749 1.8375 7.72187 1.8375 8.04999 1.88125 8.37812 1.94687 8.68437 1.20312 9.16562 1.18125 10.2812 1.18125 11.2219 1.18125 11.9875 1.35625 12.6875 1.8375 13.125 1.72812 13.4969 1.79375 13.9562 1.79375 14.5031 1.79375 15.4875 2.05625 16.3844 2.93125 16.6906L9.01249 19.2062 19.775 14.7437 18.6375 14.3281 18.6375 11.9219 19.775 11.4406 18.025 10.7844 18.025 8.68437 19.8187 7.94062ZM3.01875 6.62812 9.09999 9.01249 17.8281 5.49062 17.8281 7.37187 9.09999 11.0031 3.01875 8.59687 3.01875 6.62812ZM17.7844 14.175 9.05624 17.7844 2.95312 15.3781 2.95312 13.6719 8.39999 15.9031 17.8062 12.1844 17.7844 14.175ZM17.1719 10.8937 8.44374 14.5031 2.3625 12.0969 2.3625 10.1281 8.61874 12.6219 17.1937 9.03436 17.1937 10.8937Z" transform="matrix(1 0 0 1.00034 147 238.08)"/></g></g></g><g clip-path="url(#clip21)"><g clip-path="url(#clip22)"><g clip-path="url(#clip23)"><path d="M3.06353 16.6306 17.9435 16.6306 17.9435 17.9435 3.06353 17.9435Z" transform="matrix(1.04727 0 0 1 182 238.08)"/><path d="M3.06353 3.06353 4.81411 3.06353 4.81411 15.7553 3.06353 15.7553Z" transform="matrix(1.04727 0 0 1 182 238.08)"/><path d="M14.0047 14.0047 17.9435 14.0047 17.9435 15.7553 14.0047 15.7553Z" transform="matrix(1.04727 0 0 1 182 238.08)"/><path d="M14.0047 6.5647 17.9435 6.5647 17.9435 13.1294 14.0047 13.1294Z" transform="matrix(1.04727 0 0 1 182 238.08)"/><path d="M14.0047 3.93882 17.9435 3.93882 17.9435 5.68941 14.0047 5.68941Z" transform="matrix(1.04727 0 0 1 182 238.08)"/><path d="M11.3788 7.87764C11.1381 7.87764 10.9412 7.6807 10.9412 7.44 10.9412 7.19929 11.1381 7.00235 11.3788 7.00235 11.6195 7.00235 11.8165 7.19929 11.8165 7.44 11.8165 7.6807 11.6195 7.87764 11.3788 7.87764ZM11.3788 14.88C11.1381 14.88 10.9412 14.683 10.9412 14.4423 10.9412 14.2016 11.1381 14.0047 11.3788 14.0047 11.6195 14.0047 11.8165 14.2016 11.8165 14.4423 11.8165 14.683 11.6195 14.88 11.3788 14.88ZM13.1294 6.12705 9.62823 6.12705 9.62823 15.7553 13.1294 15.7553 13.1294 6.12705Z" transform="matrix(1.04727 0 0 1 182 238.08)"/><path d="M7.87764 6.5647 6.5647 6.5647 6.5647 5.25176 7.87764 5.25176 7.87764 6.5647ZM8.75294 4.37647 5.68941 4.37647 5.68941 15.7553 8.75294 15.7553 8.75294 4.37647Z" transform="matrix(1.04727 0 0 1 182 238.08)"/></g></g></g><path d="M0 0 15.3888 14.8056" stroke="#70AD47" stroke-width="1.33318" stroke-miterlimit="8" fill="none" fill-rule="evenodd" transform="matrix(-1 0 0 1.00034 145.889 287.597)"/><path d="M167.103 311.277 131.5 309.604" stroke="#70AD47" stroke-width="1.33318" stroke-miterlimit="8" fill="none" fill-rule="evenodd"/><path d="M168.662 308.148 157.5 290.598" stroke="#70AD47" stroke-width="1.33318" stroke-miterlimit="8" fill="none" fill-rule="evenodd"/><path d="M0 0 17.0001 14.5827" stroke="#70AD47" stroke-width="1.33318" stroke-miterlimit="8" fill="none" fill-rule="evenodd" transform="matrix(1 0 0 -1.00034 182.5 307.186)"/><path d="M122.5 261.588 124.564 292.088" stroke="#9966FF" stroke-width="1.33318" stroke-miterlimit="8" fill="none" fill-rule="evenodd"/><path d="M0 0 5.0918 14.1318" stroke="#9966FF" stroke-width="1.33318" stroke-miterlimit="8" fill="none" fill-rule="evenodd" transform="matrix(-1 0 0 1.00034 158.592 258.587)"/><path d="M164.5 257.587 173.591 296.332" stroke="#9966FF" stroke-width="1.33318" stroke-miterlimit="8" fill="none" fill-rule="evenodd"/><path d="M193.5 257.587 197.718 271.723" stroke="#9966FF" stroke-width="1.33318" stroke-miterlimit="8" fill="none" fill-rule="evenodd"/><path d="M185.07 250.842 167.5 249.584" stroke="#FFD966" stroke-width="1.33318" stroke-miterlimit="8" fill="none" fill-rule="evenodd"/><path d="M0 0 14.1332 4.04384" stroke="#FFD966" stroke-width="1.33318" stroke-miterlimit="8" fill="none" fill-rule="evenodd" transform="matrix(-1 0 0 1.00034 147.633 248.584)"/><path d="M132.5 213.572 146.833 213.572 148.5 215.239 148.5 223.575 148.5 223.575 134.167 223.575 132.5 221.908 132.5 213.572Z" stroke="#000000" stroke-width="1.33318" stroke-miterlimit="8" fill="none" fill-rule="evenodd"/><path d="M163.5 214.672C163.5 215.28 165.515 215.773 168 215.773 170.485 215.773 172.5 215.28 172.5 214.672 172.5 214.065 174.515 213.572 177 213.572 179.485 213.572 181.5 214.065 181.5 214.672L181.5 223.475C181.5 222.868 179.485 222.375 177 222.375 174.515 222.375 172.5 222.868 172.5 223.475 172.5 224.083 170.485 224.576 168 224.576 165.515 224.576 163.5 224.083 163.5 223.475Z" stroke="#000000" stroke-width="1.33318" stroke-miterlimit="8" fill="none" fill-rule="evenodd"/><path d="M143.5 226.576 151.872 241.416" stroke="#F4B183" stroke-width="1.33318" stroke-miterlimit="8" fill="none" fill-rule="evenodd"/><path d="M176.5 226.576 184.872 241.416" stroke="#F4B183" stroke-width="1.33318" stroke-miterlimit="8" fill="none" fill-rule="evenodd"/><path d="M0 0 9.36763 14.126" stroke="#F4B183" stroke-width="1.33318" stroke-miterlimit="8" fill="none" fill-rule="evenodd" transform="matrix(-1 0 0 1.00034 173.868 225.576)"/><path d="M0 0 14.432 16.0529" stroke="#F4B183" stroke-width="1.33318" stroke-miterlimit="8" fill="none" fill-rule="evenodd" transform="matrix(-1 0 0 1.00034 138.932 226.576)"/><path d="M103 639.713C103 633.361 108.148 628.211 114.498 628.211L1381.5 628.211C1387.85 628.211 1393 633.361 1393 639.713L1393 703.739C1393 710.091 1387.85 715.241 1381.5 715.241L114.498 715.241C108.148 715.241 103 710.091 103 703.739Z" fill="#F5F5F5" fill-rule="evenodd"/><text font-family="Times New Roman,Times New Roman_MSFontService,sans-serif" font-weight="700" font-size="24" transform="matrix(6.12323e-17 -1.00067 0.999664 6.1253e-17 63.7685 706)">Device</text><path d="M250 651.386C250 645.769 254.552 641.216 260.167 641.216L541.833 641.216C547.448 641.216 552 645.769 552 651.386L552 692.066C552 697.683 547.448 702.236 541.833 702.236L260.167 702.236C254.552 702.236 250 697.683 250 692.066Z" stroke="#A6A6A6" stroke-width="1.99977" stroke-miterlimit="8" fill="#D6DCE5" fill-rule="evenodd"/><text font-family="Times New Roman,Times New Roman_MSFontService,sans-serif" font-weight="700" font-size="24" transform="matrix(1 0 0 1.00034 375.822 680)">GPU</text><path d="M596 651.386C596 645.769 600.552 641.216 606.167 641.216L888.833 641.216C894.448 641.216 899 645.769 899 651.386L899 692.066C899 697.683 894.448 702.236 888.833 702.236L606.167 702.236C600.552 702.236 596 697.683 596 692.066Z" stroke="#A6A6A6" stroke-width="1.99977" stroke-miterlimit="8" fill="#D6DCE5" fill-rule="evenodd"/><text font-family="Times New Roman,Times New Roman_MSFontService,sans-serif" font-weight="700" font-size="24" transform="matrix(1 0 0 1.00034 722.981 680)">CPU</text><path d="M951 651.386C951 645.769 955.552 641.216 961.167 641.216L1242.83 641.216C1248.45 641.216 1253 645.769 1253 651.386L1253 692.066C1253 697.683 1248.45 702.236 1242.83 702.236L961.167 702.236C955.552 702.236 951 697.683 951 692.066Z" stroke="#A6A6A6" stroke-width="1.99977" stroke-miterlimit="8" fill="#D6DCE5" fill-rule="evenodd"/><g clip-path="url(#clip24)" filter="url(#fx0)" transform="translate(1073 648)"><g clip-path="url(#clip25)"><path d="M3.99609-2.27344C4.36328-2.27344 4.67188-2.14648 4.92188-1.89258 5.17188-1.63867 5.29688-1.33203 5.29688-0.972656 5.29688-0.613281 5.16992-0.306641 4.91602-0.0527344 4.66211 0.201172 4.35547 0.328125 3.99609 0.328125 3.63672 0.328125 3.33008 0.201172 3.07617-0.0527344 2.82227-0.306641 2.69531-0.613281 2.69531-0.972656 2.69531-1.33984 2.82227-1.64844 3.07617-1.89844 3.33008-2.14844 3.63672-2.27344 3.99609-2.27344ZM12-2.27344C12.3594-2.27344 12.666-2.14648 12.9199-1.89258 13.1738-1.63867 13.3008-1.33203 13.3008-0.972656 13.3008-0.613281 13.1738-0.306641 12.9199-0.0527344 12.666 0.201172 12.3594 0.328125 12 0.328125 11.6406 0.328125 11.334 0.201172 11.0801-0.0527344 10.8262-0.306641 10.6992-0.613281 10.6992-0.972656 10.6992-1.33984 10.8262-1.64844 11.0801-1.89844 11.334-2.14844 11.6406-2.27344 12-2.27344ZM20.0039-2.27344C20.3633-2.27344 20.6699-2.14648 20.9238-1.89258 21.1777-1.63867 21.3047-1.33203 21.3047-0.972656 21.3047-0.613281 21.1777-0.306641 20.9238-0.0527344 20.6699 0.201172 20.3633 0.328125 20.0039 0.328125 19.6445 0.328125 19.3379 0.201172 19.084-0.0527344 18.8301-0.306641 18.7031-0.613281 18.7031-0.972656 18.7031-1.33984 18.8281-1.64844 19.0781-1.89844 19.3281-2.14844 19.6367-2.27344 20.0039-2.27344Z" transform="matrix(1 0 0 1.00034 17.5266 33)"/></g></g><text font-family="Times New Roman,Times New Roman_MSFontService,sans-serif" font-weight="400" font-size="24" transform="matrix(1 0 0 1.00034 1089.83 680)">…</text><path d="M247 74.3587C247 67.5447 252.522 62.0209 259.334 62.0209L460.666 62.0209C467.478 62.0209 473 67.5447 473 74.3587L473 123.708C473 130.522 467.478 136.046 460.666 136.046L259.334 136.046C252.522 136.046 247 130.522 247 123.708Z" stroke="#A6A6A6" stroke-width="1.99977" stroke-miterlimit="8" fill="#D6DCE5" fill-rule="evenodd"/><text font-family="Times New Roman,Times New Roman_MSFontService,sans-serif" font-weight="700" font-size="24" transform="matrix(1 0 0 1.00034 261.054 107)">Node Classification</text><path d="M491 74.3586C491 67.5447 496.522 62.0209 503.334 62.0209L705.667 62.0209C712.478 62.0209 718 67.5447 718 74.3586L718 123.708C718 130.522 712.478 136.046 705.667 136.046L503.334 136.046C496.522 136.046 491 130.522 491 123.708Z" stroke="#A6A6A6" stroke-width="1.99977" stroke-miterlimit="8" fill="#D6DCE5" fill-rule="evenodd"/><text font-family="Times New Roman,Times New Roman_MSFontService,sans-serif" font-weight="700" font-size="24" transform="matrix(1 0 0 1.00034 523.829 107)">Link Prediction</text><path d="M736 74.3585C736 67.5446 741.522 62.0209 748.333 62.0209L965.667 62.0209C972.478 62.0209 978 67.5446 978 74.3585L978 123.708C978 130.522 972.478 136.046 965.667 136.046L748.333 136.046C741.522 136.046 736 130.522 736 123.708Z" stroke="#A6A6A6" stroke-width="1.99977" stroke-miterlimit="8" fill="#D6DCE5" fill-rule="evenodd"/><text font-family="Times New Roman,Times New Roman_MSFontService,sans-serif" font-weight="700" font-size="24" transform="matrix(1 0 0 1.00034 750.53 107)">Graph Classification</text><path d="M996 74.3587C996 67.5447 1001.52 62.0209 1008.33 62.0209L1209.67 62.0209C1216.48 62.0209 1222 67.5447 1222 74.3587L1222 123.708C1222 130.522 1216.48 136.046 1209.67 136.046L1008.33 136.046C1001.52 136.046 996 130.522 996 123.708Z" stroke="#A6A6A6" stroke-width="1.99977" stroke-miterlimit="8" fill="#D6DCE5" fill-rule="evenodd"/><text font-family="Times New Roman,Times New Roman_MSFontService,sans-serif" font-weight="700" font-size="24" transform="matrix(1 0 0 1.00034 1008.99 93)">Heterogenous Node <tspan font-size="24" x="30.7831" y="28.9902">Classification</tspan></text><path d="M1240 74.3586C1240 67.5447 1245.52 62.0209 1252.33 62.0209L1341.67 62.0209C1348.48 62.0209 1354 67.5447 1354 74.3586L1354 123.708C1354 130.522 1348.48 136.046 1341.67 136.046L1252.33 136.046C1245.52 136.046 1240 130.522 1240 123.708Z" stroke="#A6A6A6" stroke-width="1.99977" stroke-miterlimit="8" fill="#D6DCE5" fill-rule="evenodd"/><g clip-path="url(#clip26)" filter="url(#fx1)" transform="translate(1268 75)"><g clip-path="url(#clip27)"><path d="M3.99609-2.27344C4.36328-2.27344 4.67188-2.14648 4.92188-1.89258 5.17188-1.63867 5.29688-1.33203 5.29688-0.972656 5.29688-0.613281 5.16992-0.306641 4.91602-0.0527344 4.66211 0.201172 4.35547 0.328125 3.99609 0.328125 3.63672 0.328125 3.33008 0.201172 3.07617-0.0527344 2.82227-0.306641 2.69531-0.613281 2.69531-0.972656 2.69531-1.33984 2.82227-1.64844 3.07617-1.89844 3.33008-2.14844 3.63672-2.27344 3.99609-2.27344ZM12-2.27344C12.3594-2.27344 12.666-2.14648 12.9199-1.89258 13.1738-1.63867 13.3008-1.33203 13.3008-0.972656 13.3008-0.613281 13.1738-0.306641 12.9199-0.0527344 12.666 0.201172 12.3594 0.328125 12 0.328125 11.6406 0.328125 11.334 0.201172 11.0801-0.0527344 10.8262-0.306641 10.6992-0.613281 10.6992-0.972656 10.6992-1.33984 10.8262-1.64844 11.0801-1.89844 11.334-2.14844 11.6406-2.27344 12-2.27344ZM20.0039-2.27344C20.3633-2.27344 20.6699-2.14648 20.9238-1.89258 21.1777-1.63867 21.3047-1.33203 21.3047-0.972656 21.3047-0.613281 21.1777-0.306641 20.9238-0.0527344 20.6699 0.201172 20.3633 0.328125 20.0039 0.328125 19.6445 0.328125 19.3379 0.201172 19.084-0.0527344 18.8301-0.306641 18.7031-0.613281 18.7031-0.972656 18.7031-1.33984 18.8281-1.64844 19.0781-1.89844 19.3281-2.14844 19.6367-2.27344 20.0039-2.27344Z" transform="matrix(1 0 0 1.00034 17.6713 33)"/></g></g><text font-family="Times New Roman,Times New Roman_MSFontService,sans-serif" font-weight="400" font-size="24" transform="matrix(1 0 0 1.00034 1284.97 107)">…<tspan font-weight="700" font-size="24" x="-1159.76" y="-9.99663">Graph </tspan><tspan font-weight="700" font-size="24" x="-1147" y="18.9936">Task</tspan></text></g></svg>